<?xml version="1.0" encoding="UTF-8"?>
<svg version="1.1" xmlns="http://www.w3.org/2000/svg" width="100" height="100">
    <path d="M0 0 C0.886875 0.350625 1.77375 0.70125 2.6875 1.0625 C6.06203126 2.01755602 7.69686152 1.97151132 11 1 C10.67 2.65 10.34 4.3 10 6 C11.32 6 12.64 6 14 6 C13.835 6.495 13.67 6.99 13.5 7.5 C11.99482781 15.02586093 13.32463915 19.77229549 16.9375 26.3125 C20.30680876 32.64959368 22.16419362 37.09575856 22.25 44.375 C22.27578125 45.68210938 22.3015625 46.98921875 22.328125 48.3359375 C21.98491533 52.16844546 21.30668392 53.97420599 19 57 C18.236875 57.598125 17.47375 58.19625 16.6875 58.8125 C16.130625 59.534375 15.57375 60.25625 15 61 C15.65005297 64.28732946 15.65005297 64.28732946 16.3984375 66.59375 C18.18065072 73.72260287 17.93667225 81.0753842 14.125 87.44140625 C12.53741546 89.64087234 11.51376929 90.88276921 9 92 C6.1970622 92.1779643 3.76393558 92.20922222 1 92 C0.071875 91.95875 -0.85625 91.9175 -1.8125 91.875 C-4 91 -4 91 -5.8125 87.9375 C-6.4003125 86.4834375 -6.4003125 86.4834375 -7 85 C-9.80634087 86.14332406 -11.25013159 87.26329641 -13.375 89.5 C-17.1345314 93.08050609 -20.24341403 93.93494126 -25.375 94.125 C-26.24125 94.08375 -27.1075 94.0425 -28 94 C-28 93.34 -28 92.68 -28 92 C-29.65 92 -31.3 92 -33 92 C-33 90.35 -33 88.7 -33 87 C-33.66 87 -34.32 87 -35 87 C-38 82.61538462 -38 82.61538462 -38 80 C-39.32 80 -40.64 80 -42 80 C-42.20625 80.886875 -42.4125 81.77375 -42.625 82.6875 C-44.27297129 86.65761265 -46.07624445 89.22624749 -50 91 C-53.70718656 91.40284421 -57.28776799 91.29724278 -61 91 C-63.62357046 83.50408441 -66.17419872 75.75943457 -67.3046875 67.875 C-68.33192758 65.1049144 -70.14206964 64.03244604 -72.5 62.3125 C-73.3146875 61.71050781 -74.129375 61.10851562 -74.96875 60.48828125 C-75.6390625 59.99714844 -76.309375 59.50601563 -77 59 C-78.72320702 57.27679298 -78.29481466 55.10621542 -78.375 52.75 C-78.33936619 45.32035 -76.41574759 36.41574759 -71 31 C-70.54209888 29.03756664 -70.0853637 27.07483312 -69.640625 25.109375 C-68.66996419 21.91329672 -66.99498295 19.65997726 -65 17 C-59.99115568 17.61512123 -54.99418828 18.27357261 -50 19 C-48.700625 19.185625 -47.40125 19.37125 -46.0625 19.5625 C-44.5465625 19.7790625 -44.5465625 19.7790625 -43 20 C-42.79375 19.278125 -42.5875 18.55625 -42.375 17.8125 C-39.61935668 12.17595684 -35.03373914 9.68522561 -29.30078125 7.61572266 C-24.35971604 6.29342146 -19.23958504 6.52500308 -14.15820312 6.47265625 C-9.31739453 6.34787422 -5.89636425 6.20788047 -2 3 C-1.34 2.01 -0.68 1.02 0 0 Z "
          fill="#699F90" transform="translate(78,3)"/>
    <path d="M0 0 C0.886875 0.350625 1.77375 0.70125 2.6875 1.0625 C6.06203126 2.01755602 7.69686152 1.97151132 11 1 C10.67 2.65 10.34 4.3 10 6 C11.32 6 12.64 6 14 6 C13.835 6.495 13.67 6.99 13.5 7.5 C11.99482781 15.02586093 13.32463915 19.77229549 16.9375 26.3125 C20.30680876 32.64959368 22.16419362 37.09575856 22.25 44.375 C22.27578125 45.68210938 22.3015625 46.98921875 22.328125 48.3359375 C21.98487474 52.16889871 21.30011498 53.97004084 19 57 C18.2575 57.61875 17.515 58.2375 16.75 58.875 C14.57128166 61.02573694 14.57128166 61.02573694 15.25 64.75 C15.62125 66.35875 15.62125 66.35875 16 68 C13.69632373 64.96623556 11.49138701 61.87444175 9.3125 58.75 C8.68988281 57.85796875 8.06726563 56.9659375 7.42578125 56.046875 C6.95527344 55.37140625 6.48476562 54.6959375 6 54 C5.34 55.32 4.68 56.64 4 58 C1.03 58 -1.94 58 -5 58 C-6.00508801 56.21118264 -7.00392736 54.41885304 -8 52.625 C-8.556875 51.62726562 -9.11375 50.62953125 -9.6875 49.6015625 C-11 47 -11 47 -11 45 C-10.34 44.34 -9.68 43.68 -9 43 C-10.32 41.68 -11.64 40.36 -13 39 C-13 42.63 -13 46.26 -13 50 C-14.69788731 46.60422538 -15.41559119 44.52602114 -16.03515625 40.90234375 C-16.20466797 39.93619141 -16.37417969 38.97003906 -16.54882812 37.97460938 C-16.8030957 36.47124023 -16.8030957 36.47124023 -17.0625 34.9375 C-17.40563722 32.94628366 -17.75060846 30.95538225 -18.09765625 28.96484375 C-18.32207397 27.64407837 -18.32207397 27.64407837 -18.55102539 26.29663086 C-18.9777852 23.85274821 -18.9777852 23.85274821 -20 21 C-25.34890916 21.60666018 -25.34890916 21.60666018 -30.625 22.625 C-33 23 -33 23 -35.6953125 22.5390625 C-44.66041423 21.07667002 -55.77881305 20.49160716 -64 25 C-65.43923199 27.50995496 -65.43923199 27.50995496 -66 30 C-68.125 30.8125 -68.125 30.8125 -70 31 C-70.74737188 25.02102497 -68.3231898 21.67620279 -65 17 C-59.99115568 17.61512123 -54.99418828 18.27357261 -50 19 C-48.700625 19.185625 -47.40125 19.37125 -46.0625 19.5625 C-45.051875 19.706875 -44.04125 19.85125 -43 20 C-42.690625 18.9171875 -42.690625 18.9171875 -42.375 17.8125 C-39.61935668 12.17595684 -35.03373914 9.68522561 -29.30078125 7.61572266 C-24.35971604 6.29342146 -19.23958504 6.52500308 -14.15820312 6.47265625 C-9.31739453 6.34787422 -5.89636425 6.20788047 -2 3 C-1.34 2.01 -0.68 1.02 0 0 Z "
          fill="#5E996E" transform="translate(78,3)"/>
    <path d="M0 0 C1.90049221 1.90049221 1.21802011 5.09325872 1.25 7.625 C1.20993993 13.2391328 0.99625276 17.22819005 -2 22 C-2.99 22.33 -3.98 22.66 -5 23 C-6.32 21.35 -7.64 19.7 -9 18 C-10.32 18.33 -11.64 18.66 -13 19 C-13.19561869 21.0825867 -13.38119313 23.16611856 -13.5625 25.25 C-13.66691406 26.41015625 -13.77132812 27.5703125 -13.87890625 28.765625 C-13.98198087 31.51871477 -13.86213473 33.419982 -13 36 C-8.34947128 36.26932521 -8.34947128 36.26932521 -4 35 C-5 38 -5 38 -6.71484375 38.9140625 C-12.50953079 40.76754763 -17.92516985 41.73688634 -24 42 C-24.67305176 42.03254883 -25.34610352 42.06509766 -26.03955078 42.09863281 C-35.45297394 42.50390739 -43.52009926 42.6656482 -52 38 C-54.38226648 36.5885083 -54.38226648 36.5885083 -57 36 C-57.56453919 27.29355117 -57.88823189 19.03680057 -52 12 C-50.35059701 11.29169781 -48.68456473 10.62005151 -47 10 C-46.608125 9.21625 -46.21625 8.4325 -45.8125 7.625 C-42.85949714 3.34823724 -38.96090776 2.15691639 -34 1 C-27.24647382 0.48325836 -20.58353433 0.71783593 -13.875 1.625 C-8.73921892 2.12201107 -5.1311625 -0.42759687 0 0 Z "
          fill="#88C8AF" transform="translate(58,23)"/>
    <path d="M0 0 C0.5775 0.309375 1.155 0.61875 1.75 0.9375 C3.84904107 1.92871384 5.75074138 2.47548801 8 3 C7.74421622 5.89787973 7.47099197 8.79231034 7.1875 11.6875 C7.11724609 12.50412109 7.04699219 13.32074219 6.97460938 14.16210938 C6.50851105 18.76716087 6.0402149 22.31758241 3 26 C-0.69468923 28.7885651 -4.3205981 29.73467232 -8.8125 30.6875 C-9.97394531 30.93886719 -11.13539062 31.19023438 -12.33203125 31.44921875 C-13.21246094 31.63097656 -14.09289063 31.81273438 -15 32 C-16.33333333 28 -17.66666667 24 -19 20 C-19.88751953 20.19916016 -19.88751953 20.19916016 -20.79296875 20.40234375 C-22.42364253 20.76678471 -24.0551956 21.12730841 -25.6875 21.484375 C-27.3606506 21.85744236 -29.02674151 22.26265481 -30.6875 22.6875 C-33 23 -33 23 -35.69140625 22.53515625 C-44.6624293 21.0841171 -55.77420128 20.48907812 -64 25 C-65.43923199 27.50995496 -65.43923199 27.50995496 -66 30 C-68.125 30.8125 -68.125 30.8125 -70 31 C-70.74737188 25.02102497 -68.3231898 21.67620279 -65 17 C-59.99115568 17.61512123 -54.99418828 18.27357261 -50 19 C-48.700625 19.185625 -47.40125 19.37125 -46.0625 19.5625 C-45.051875 19.706875 -44.04125 19.85125 -43 20 C-42.690625 18.9171875 -42.690625 18.9171875 -42.375 17.8125 C-39.61935668 12.17595684 -35.03373914 9.68522561 -29.30078125 7.61572266 C-24.35971604 6.29342146 -19.23958504 6.52500308 -14.15820312 6.47265625 C-9.31739453 6.34787422 -5.89636425 6.20788047 -2 3 C-1.34 2.01 -0.68 1.02 0 0 Z "
          fill="#78AF84" transform="translate(78,3)"/>
    <path d="M0 0 C0.66 0.33 1.32 0.66 2 1 C0.35 3.97 -1.3 6.94 -3 10 C-1.02 9.67 0.96 9.34 3 9 C2.14285714 17.57142857 2.14285714 17.57142857 0 21 C-1.98 21 -3.96 21 -6 21 C-5.67 21.99 -5.34 22.98 -5 24 C-4.34 24.33 -3.68 24.66 -3 25 C-3 25.99 -3 26.98 -3 28 C-2.34 28 -1.68 28 -1 28 C-1 27.01 -1 26.02 -1 25 C-0.01 25.33 0.98 25.66 2 26 C2 26.66 2 27.32 2 28 C-0.97 28.495 -0.97 28.495 -4 29 C-4 28.34 -4 27.68 -4 27 C-5.65 27 -7.3 27 -9 27 C-9 25.35 -9 23.7 -9 22 C-9.66 22 -10.32 22 -11 22 C-14 17.61538462 -14 17.61538462 -14 15 C-15.32 15 -16.64 15 -18 15 C-18.2475 15.928125 -18.495 16.85625 -18.75 17.8125 C-20.06454245 21.16458325 -20.97963384 22.1877803 -24 24 C-22.55049545 20.2089881 -20.84827434 16.6125362 -19 13 C-19.78375 12.7525 -20.5675 12.505 -21.375 12.25 C-24 11 -24 11 -24.9375 8.9375 C-25.288125 8.298125 -25.63875 7.65875 -26 7 C-29.05908413 6.18415432 -29.05908413 6.18415432 -32 6 C-32 5.67 -32 5.34 -32 5 C-30.98421875 5.03480469 -29.9684375 5.06960937 -28.921875 5.10546875 C-19.62340868 5.3253496 -10.24758708 5.30103005 -1.796875 0.8359375 C-0.90742187 0.42214844 -0.90742187 0.42214844 0 0 Z "
          fill="#5D958C" transform="translate(54,68)"/>
    <path d="M0 0 C1.09570312 0.00902344 2.19140625 0.01804687 3.3203125 0.02734375 C4.58488281 0.04474609 4.58488281 0.04474609 5.875 0.0625 C6.535 1.7125 7.195 3.3625 7.875 5.0625 C6.82012267 6.02921756 5.75566719 6.98548745 4.6875 7.9375 C4.09582031 8.47117187 3.50414062 9.00484375 2.89453125 9.5546875 C-0.99341132 12.45748408 -4.49177439 13.31481847 -9.29296875 13.15234375 C-10.26943359 13.13236328 -11.24589844 13.11238281 -12.25195312 13.09179688 C-14.27292605 13.03118058 -16.29377235 12.96616302 -18.31445312 12.89648438 C-24.89363685 12.77137203 -31.09357115 13.18233632 -37.125 16.0625 C-38.56423199 18.57245496 -38.56423199 18.57245496 -39.125 21.0625 C-41.25 21.875 -41.25 21.875 -43.125 22.0625 C-43.87237188 16.08352497 -41.4481898 12.73870279 -38.125 8.0625 C-33.11615568 8.67762123 -28.11918828 9.33607261 -23.125 10.0625 C-21.825625 10.248125 -20.52625 10.43375 -19.1875 10.625 C-18.176875 10.769375 -17.16625 10.91375 -16.125 11.0625 C-15.815625 9.9796875 -15.815625 9.9796875 -15.5 8.875 C-12.27039565 2.26899111 -7.07616737 -0.07527838 0 0 Z "
          fill="#85BF90" transform="translate(51.125,11.9375)"/>
    <path d="M0 0 C1.98341054 7.10722111 -0.12475986 13.36734377 -3 20 C-5.88878693 24.35992843 -9.01821715 28.09099715 -14 30 C-14.66 29.67 -15.32 29.34 -16 29 C-16 29.99 -16 30.98 -16 32 C-16.66 32 -17.32 32 -18 32 C-18 31.01 -18 30.02 -18 29 C-18.99 28.67 -19.98 28.34 -21 28 C-21 27.01 -21 26.02 -21 25 C-19.02 24.67 -17.04 24.34 -15 24 C-13.515 18.555 -13.515 18.555 -12 13 C-14.31 13.66 -16.62 14.32 -19 15 C-15.01929339 4.97168143 -15.01929339 4.97168143 -9.875 2.4375 C-8.59878749 1.91857312 -7.30725568 1.43484028 -6 1 C-3 0 -3 0 0 0 Z "
          fill="#89CAAF" transform="translate(69,64)"/>
    <path d="M0 0 C2.40290816 0.71029361 4.79548248 1.44208059 7.1875 2.1875 C7.86103516 2.38408203 8.53457031 2.58066406 9.22851562 2.78320312 C13.97721796 4.28888923 16.61091609 6.21438708 20 10 C20.66 10.33 21.32 10.66 22 11 C21.42176162 15.77046664 19.53971712 18.99802151 17 23 C14.37684968 24.31157516 12.76966564 23.89649988 9.875 23.5625 C8.96492188 23.46066406 8.05484375 23.35882813 7.1171875 23.25390625 C6.41851562 23.17011719 5.71984375 23.08632812 5 23 C4.40267181 20.23735711 4 17.83967231 4 15 C5.65 14.34 7.3 13.68 9 13 C9 10.36 9 7.72 9 5 C8.566875 6.11375 8.566875 6.11375 8.125 7.25 C7.17697356 9.56739797 6.15154089 11.77917115 5 14 C2 13 2 13 0.8125 10.9375 C-0.23642055 7.14524878 -0.13319932 3.92937998 0 0 Z "
          fill="#6EA392" transform="translate(13,70)"/>
    <path d="M0 0 C0.33 0.99 0.66 1.98 1 3 C3.01508358 3.73323796 3.01508358 3.73323796 5 4 C4.20335937 4.19335938 3.40671875 4.38671875 2.5859375 4.5859375 C-0.61423078 5.37235355 -3.80690048 6.18543379 -7 7 C-8.19625 7.28875 -9.3925 7.5775 -10.625 7.875 C-13.23741704 8.80976443 -13.23741704 8.80976443 -14.25 11.5625 C-14.4975 12.366875 -14.745 13.17125 -15 14 C-15.99 14.495 -15.99 14.495 -17 15 C-17.65555119 17.52733235 -17.65555119 17.52733235 -18 20 C-18.33 18.68 -18.66 17.36 -19 16 C-19.66 16 -20.32 16 -21 16 C-21 17.65 -21 19.3 -21 21 C-21.33 21 -21.66 21 -22 21 C-22.33 19.35 -22.66 17.7 -23 16 C-23.309375 16.61875 -23.61875 17.2375 -23.9375 17.875 C-24.625 19.25 -25.3125 20.625 -26 22 C-26.22467831 23.53668865 -26.40796805 25.07968054 -26.5625 26.625 C-26.64628906 27.44226563 -26.73007812 28.25953125 -26.81640625 29.1015625 C-26.87699219 29.72804688 -26.93757813 30.35453125 -27 31 C-27.99 30.67 -28.98 30.34 -30 30 C-28.36956522 15.05434783 -28.36956522 15.05434783 -25 10 C-24.01 9.67 -23.02 9.34 -22 9 C-21.649375 8.236875 -21.29875 7.47375 -20.9375 6.6875 C-16.12626792 0.0138555 -7.61747883 -0.49145025 0 0 Z "
          fill="#A9D9C4" transform="translate(33,24)"/>
    <path d="M0 0 C0.33 0 0.66 0 1 0 C1.02578125 0.62648437 1.0515625 1.25296875 1.078125 1.8984375 C1.13484375 2.71570312 1.1915625 3.53296875 1.25 4.375 C1.29640625 5.18710937 1.3428125 5.99921875 1.390625 6.8359375 C1.78152925 9.13835218 1.78152925 9.13835218 3.7890625 10.15625 C4.51867187 10.4346875 5.24828125 10.713125 6 11 C6.96292969 11.52980469 6.96292969 11.52980469 7.9453125 12.0703125 C20.14610658 17.97392254 35.89591597 15.08234322 49 14 C46.42215154 16.64752004 44.08351902 18.94432065 41 21 C40.01 20.67 39.02 20.34 38 20 C37.505 18.515 37.505 18.515 37 17 C33.37467934 17.13847638 29.74984096 17.28702643 26.125 17.4375 C25.09246094 17.47681641 24.05992188 17.51613281 22.99609375 17.55664062 C22.00996094 17.59853516 21.02382813 17.64042969 20.0078125 17.68359375 C18.64100342 17.73858032 18.64100342 17.73858032 17.24658203 17.79467773 C14.96516519 17.86577065 14.96516519 17.86577065 13 19 C13.41651303 26.76746914 13.41651303 26.76746914 16 34 C16.66 34.33 17.32 34.66 18 35 C18.77321882 32.01758453 19.41196203 29.02419525 20 26 C20.66 26 21.32 26 22 26 C23.38125018 28.76250036 23.19079306 30.94731099 23 34 C22.34 34.66 21.68 35.32 21 36 C19.68 36 18.36 36 17 36 C17.26393501 39.43230448 17.26393501 39.43230448 18 43 C18.99 43.66 19.98 44.32 21 45 C19.35 44.67 17.7 44.34 16 44 C11 24 11 24 10.69140625 21.87109375 C9.66824654 19.10220391 7.85551781 18.03068625 5.5 16.3125 C4.6853125 15.71050781 3.870625 15.10851562 3.03125 14.48828125 C2.3609375 13.99714844 1.690625 13.50601563 1 13 C0 12 0 12 -0.09765625 9.27734375 C-0.08605469 8.17519531 -0.07445312 7.07304688 -0.0625 5.9375 C-0.05347656 4.83277344 -0.04445312 3.72804687 -0.03515625 2.58984375 C-0.02355469 1.73519531 -0.01195312 0.88054688 0 0 Z "
          fill="#3A4B48" transform="translate(0,49)"/>
    <path d="M0 0 C0.99 0.33 1.98 0.66 3 1 C3.65265077 3.34714773 4.15985105 5.61618316 4.625 8 C6.39945037 15.75701439 9.66883225 20.06346011 16 25 C16.55171875 25.47179687 17.1034375 25.94359375 17.671875 26.4296875 C21.34581538 29.2937808 24.47143835 29.36228493 29 29 C28.01 29.99 27.02 30.98 26 32 C26.99 32.66 27.98 33.32 29 34 C28.67 34.66 28.34 35.32 28 36 C27.505 35.505 27.505 35.505 27 35 C26.34 36.32 25.68 37.64 25 39 C22.03 39 19.06 39 16 39 C14.99491199 37.21118264 13.99607264 35.41885304 13 33.625 C12.1646875 32.12839844 12.1646875 32.12839844 11.3125 30.6015625 C10 28 10 28 10 26 C10.66 25.34 11.32 24.68 12 24 C10.68 22.68 9.36 21.36 8 20 C8 23.63 8 27.26 8 31 C6.30500576 27.61001151 5.60023124 25.58509704 5 21.97265625 C4.835 21.01552734 4.67 20.05839844 4.5 19.07226562 C4.335 18.07904297 4.17 17.08582031 4 16.0625 C3.67173627 14.09419989 3.33855962 12.12671156 3 10.16015625 C2.855625 9.29011963 2.71125 8.42008301 2.5625 7.52368164 C1.97004337 4.86559822 1.07540063 2.49778599 0 0 Z "
          fill="#43725E" transform="translate(57,22)"/>
    <path d="M0 0 C0.66 0.33 1.32 0.66 2 1 C0.35 3.97 -1.3 6.94 -3 10 C-3.33 10 -3.66 10 -4 10 C-4 8.35 -4 6.7 -4 5 C-4.55558594 5.14566406 -5.11117187 5.29132813 -5.68359375 5.44140625 C-8.98288512 6.23701951 -12.32003743 6.80463828 -15.66015625 7.40234375 C-18.24733665 7.92545337 -18.24733665 7.92545337 -21 10 C-17.79663178 12.83374881 -15.21912747 13.5205537 -11 14 C-10.855625 14.639375 -10.71125 15.27875 -10.5625 15.9375 C-10.18992819 17.97545146 -10.18992819 17.97545146 -9 19 C-4.98342857 19.22918242 -4.98342857 19.22918242 -1 19 C-0.34 18.34 0.32 17.68 1 17 C0.67 18.32 0.34 19.64 0 21 C-1.98 21 -3.96 21 -6 21 C-5.67 21.99 -5.34 22.98 -5 24 C-4.34 24.33 -3.68 24.66 -3 25 C-3 25.99 -3 26.98 -3 28 C-2.34 28 -1.68 28 -1 28 C-1 27.01 -1 26.02 -1 25 C-0.01 25.33 0.98 25.66 2 26 C2 26.66 2 27.32 2 28 C-0.97 28.495 -0.97 28.495 -4 29 C-4 28.34 -4 27.68 -4 27 C-5.65 27 -7.3 27 -9 27 C-9 25.35 -9 23.7 -9 22 C-9.66 22 -10.32 22 -11 22 C-14 17.61538462 -14 17.61538462 -14 15 C-15.32 15 -16.64 15 -18 15 C-18.2475 15.928125 -18.495 16.85625 -18.75 17.8125 C-20.06454245 21.16458325 -20.97963384 22.1877803 -24 24 C-22.55049545 20.2089881 -20.84827434 16.6125362 -19 13 C-19.78375 12.7525 -20.5675 12.505 -21.375 12.25 C-24 11 -24 11 -24.9375 8.9375 C-25.288125 8.298125 -25.63875 7.65875 -26 7 C-29.05908413 6.18415432 -29.05908413 6.18415432 -32 6 C-32 5.67 -32 5.34 -32 5 C-30.98421875 5.03480469 -29.9684375 5.06960937 -28.921875 5.10546875 C-19.62340868 5.3253496 -10.24758708 5.30103005 -1.796875 0.8359375 C-0.90742187 0.42214844 -0.90742187 0.42214844 0 0 Z "
          fill="#41665E" transform="translate(54,68)"/>
    <path d="M0 0 C2.67879738 0.28197867 4.50542548 0.6336485 6.6875 2.25 C10.25840293 7.01120391 10.19420098 11.27107107 10 17 C6.457201 18.180933 3.71640139 18.27028374 0 18 C-3.46343972 12.80484042 -2.06832624 6.9351458 -1 1 C-0.67 0.67 -0.34 0.34 0 0 Z "
          fill="#A15D66" transform="translate(45,40)"/>
    <path d="M0 0 C-0.33 1.65 -0.66 3.3 -1 5 C0.32 5 1.64 5 3 5 C2.835 5.495 2.67 5.99 2.5 6.5 C1.17542988 13.12285058 1.78788406 17.13439698 5 23 C4.67 23.66 4.34 24.32 4 25 C3.34 24.67 2.68 24.34 2 24 C2 29.28 2 34.56 2 40 C1.67 40 1.34 40 1 40 C0.81824219 39.23816406 0.63648437 38.47632813 0.44921875 37.69140625 C-0.74358588 32.79173184 -1.94570806 27.98601521 -3.6875 23.25 C-6.20634632 15.87906025 -4.91658089 9.39252628 -3 2 C-3.66 1.67 -4.32 1.34 -5 1 C-3 0 -3 0 0 0 Z "
          fill="#497B58" transform="translate(89,4)"/>
    <path d="M0 0 C0.98291016 0.00322266 1.96582031 0.00644531 2.97851562 0.00976562 C4.51475586 0.02233398 4.51475586 0.02233398 6.08203125 0.03515625 C7.11779297 0.03966797 8.15355469 0.04417969 9.22070312 0.04882812 C11.77870391 0.06061615 14.33658858 0.0770711 16.89453125 0.09765625 C16.89453125 0.75765625 16.89453125 1.41765625 16.89453125 2.09765625 C17.55453125 2.42765625 18.21453125 2.75765625 18.89453125 3.09765625 C15.51924487 6.9611916 11.85093377 7.52696637 6.89453125 8.09765625 C1.60936667 8.1062083 -2.88732731 7.52489617 -7.10546875 4.09765625 C-7.43546875 3.10765625 -7.76546875 2.11765625 -8.10546875 1.09765625 C-5.10530963 0.09760321 -3.13123119 -0.0180996 0 0 Z "
          fill="#667D7B" transform="translate(20.10546875,65.90234375)"/>
    <path d="M0 0 C0.99 0.33 1.98 0.66 3 1 C2.18595703 1.45439453 2.18595703 1.45439453 1.35546875 1.91796875 C-2.93986158 4.43325228 -5.85835324 6.31514772 -8 11 C-7.34 11.33 -6.68 11.66 -6 12 C-6.96679688 12.03738281 -7.93359375 12.07476562 -8.9296875 12.11328125 C-20.31495476 12.47354362 -20.31495476 12.47354362 -31 16 C-32.43923199 18.50995496 -32.43923199 18.50995496 -33 21 C-35.125 21.8125 -35.125 21.8125 -37 22 C-37.74737188 16.02102497 -35.3231898 12.67620279 -32 8 C-26.99115568 8.61512123 -21.99418828 9.27357261 -17 10 C-15.700625 10.185625 -14.40125 10.37125 -13.0625 10.5625 C-12.051875 10.706875 -11.04125 10.85125 -10 11 C-9.690625 9.9171875 -9.690625 9.9171875 -9.375 8.8125 C-7.34230405 4.65471282 -4.17179512 2.08589756 0 0 Z "
          fill="#4F7667" transform="translate(45,12)"/>
    <path d="M0 0 C-0.24715196 3.33655152 -1.23073175 4.22536589 -3.6875 6.625 C-6.61412313 8.89735402 -9.32398279 10.26479656 -13 11 C-13.99 10.34 -14.98 9.68 -16 9 C-16.2475 9.61875 -16.495 10.2375 -16.75 10.875 C-18.20628639 13.35068687 -19.37812506 13.95125002 -22 15 C-22.36842105 10.45614035 -22.36842105 10.45614035 -20.6875 8.375 C-20.130625 7.92125 -19.57375 7.4675 -19 7 C-18.56945312 6.52175781 -18.13890625 6.04351562 -17.6953125 5.55078125 C-13.10682605 1.35347913 -6.10330919 -0.6424536 0 0 Z "
          fill="#49826A" transform="translate(38,28)"/>
    <path d="M0 0 C0.66 0 1.32 0 2 0 C2.75479946 7.88346103 1.31335301 13.35319372 -3 20 C-5.72608169 23.25800007 -7.66727738 25.51858638 -12 26 C-12 26.99 -12 27.98 -12 29 C-12.66 29 -13.32 29 -14 29 C-13.875 26.8125 -13.875 26.8125 -13 24 C-10.125 21.5625 -10.125 21.5625 -8.5703125 20.50390625 C-4.64805693 16.74751721 -3.31177497 11.19151542 -1.8125 6.125 C-1.29623047 4.39636719 -1.29623047 4.39636719 -0.76953125 2.6328125 C-0.51558594 1.76398438 -0.26164062 0.89515625 0 0 Z "
          fill="#73A895" transform="translate(70,68)"/>
    <path d="M0 0 C-0.33 2.64 -0.66 5.28 -1 8 C-1.66 8 -2.32 8 -3 8 C-3.33 8.99 -3.66 9.98 -4 11 C-9.37305699 11.35233161 -9.37305699 11.35233161 -12 11 C-14 9 -14 9 -15 7 C-14 6 -14 6 -11.4375 5.9375 C-10.2309375 5.9684375 -10.2309375 5.9684375 -9 6 C-8.67 4.35 -8.34 2.7 -8 1 C-5.23735711 0.40267181 -2.83967231 0 0 0 Z "
          fill="#456F64" transform="translate(57,77)"/>
    <path d="M0 0 C0.99 0.33 1.98 0.66 3 1 C3 4.96 3 8.92 3 13 C-2 13 -2 13 -4.375 11.3125 C-6 9 -6 9 -6.0625 6.5 C-4.66837854 3.2197142 -3.00800879 1.86210068 0 0 Z "
          fill="#4F806D" transform="translate(82,69)"/>
    <path d="M0 0 C0.268125 0.61875 0.53625 1.2375 0.8125 1.875 C1.95556848 4.2995233 1.95556848 4.2995233 5 6 C4.67 7.65 4.34 9.3 4 11 C3.67 9.68 3.34 8.36 3 7 C2.34 7 1.68 7 1 7 C1 8.65 1 10.3 1 12 C0.67 12 0.34 12 0 12 C-0.33 10.35 -0.66 8.7 -1 7 C-1.309375 7.61875 -1.61875 8.2375 -1.9375 8.875 C-2.625 10.25 -3.3125 11.625 -4 13 C-4.22467831 14.53668865 -4.40796805 16.07968054 -4.5625 17.625 C-4.64628906 18.44226563 -4.73007813 19.25953125 -4.81640625 20.1015625 C-4.87699219 20.72804688 -4.93757812 21.35453125 -5 22 C-5.99 21.67 -6.98 21.34 -8 21 C-6.36956522 6.05434783 -6.36956522 6.05434783 -3 1 C-2.01 0.67 -1.02 0.34 0 0 Z "
          fill="#93D3B6" transform="translate(11,33)"/>
    <path d="M0 0 C1.32 0.33 2.64 0.66 4 1 C4.07347656 1.99580078 4.07347656 1.99580078 4.1484375 3.01171875 C4.64050717 9.7431797 4.64050717 9.7431797 7 16 C7.66 16.33 8.32 16.66 9 17 C9.77321882 14.01758453 10.41196203 11.02419525 11 8 C11.66 8 12.32 8 13 8 C14.38125018 10.76250036 14.19079306 12.94731099 14 16 C13.34 16.66 12.68 17.32 12 18 C10.68 18 9.36 18 8 18 C8.26393501 21.43230448 8.26393501 21.43230448 9 25 C9.99 25.66 10.98 26.32 12 27 C10.35 26.67 8.7 26.34 7 26 C2 6 2 6 1.47265625 3.765625 C1.03986365 1.91246983 1.03986365 1.91246983 0 0 Z "
          fill="#2C473D" transform="translate(9,67)"/>
    <path d="M0 0 C0 0.66 0 1.32 0 2 C0.66 2.33 1.32 2.66 2 3 C-2.77795171 5.81517812 -7.60287716 5.53737587 -13 5 C-16.6875 3.5 -16.6875 3.5 -19 2 C-19 1.67 -19 1.34 -19 1 C-12.65333314 0.41639845 -6.37625222 -0.14491482 0 0 Z "
          fill="#B488A7" transform="translate(37,66)"/>
    <path d="M0 0 C0.33 0 0.66 0 1 0 C2.49022868 5.74802489 3.69283781 11.06139019 3 17 C0.625 19.75 0.625 19.75 -2 22 C-3.29519995 24.16620544 -3.29519995 24.16620544 -4 26 C-4.66 23.69 -5.32 21.38 -6 19 C-5.01 18.34 -4.02 17.68 -3 17 C-0.52031143 11.62734143 -0.39373623 5.82315168 0 0 Z "
          fill="#70A998" transform="translate(59,27)"/>
    <path d="M0 0 C3.96 1.98 3.96 1.98 8 4 C8.36629408 8.27343092 7.40814077 10.48812804 5 14 C2 13 2 13 0.8125 10.9375 C-0.23642055 7.14524878 -0.13319932 3.92937998 0 0 Z "
          fill="#81C7AE" transform="translate(13,70)"/>
    <path d="M0 0 C2.31 0.33 4.62 0.66 7 1 C7.144375 1.639375 7.28875 2.27875 7.4375 2.9375 C7.81007181 4.97545146 7.81007181 4.97545146 9 6 C13.01657143 6.22918242 13.01657143 6.22918242 17 6 C17.66 5.34 18.32 4.68 19 4 C18.67 5.32 18.34 6.64 18 8 C16.02 8 14.04 8 12 8 C12.33 8.99 12.66 9.98 13 11 C13.66 11.33 14.32 11.66 15 12 C15 12.99 15 13.98 15 15 C15.66 15 16.32 15 17 15 C17 14.01 17 13.02 17 12 C17.99 12.33 18.98 12.66 20 13 C20 13.66 20 14.32 20 15 C18.02 15.33 16.04 15.66 14 16 C14 15.34 14 14.68 14 14 C12.35 14 10.7 14 9 14 C9 12.35 9 10.7 9 9 C8.34 9 7.68 9 7 9 C4 4.61538462 4 4.61538462 4 2 C2.68 2 1.36 2 0 2 C0 1.34 0 0.68 0 0 Z "
          fill="#415751" transform="translate(36,81)"/>
    <path d="M0 0 C0.33 0 0.66 0 1 0 C1.08139142 2.39652528 1.14067009 4.79025436 1.1875 7.1875 C1.21263672 7.86103516 1.23777344 8.53457031 1.26367188 9.22851562 C1.32933376 13.71541119 0.7322465 16.42907832 -2 20 C-2.7425 20.61875 -3.485 21.2375 -4.25 21.875 C-6.42871834 24.02573694 -6.42871834 24.02573694 -5.75 27.75 C-5.5025 28.8225 -5.255 29.895 -5 31 C-7.74501997 27.38813161 -10.37012014 23.69604737 -13 20 C-12.67 19.34 -12.34 18.68 -12 18 C-11.34 18.66 -10.68 19.32 -10 20 C-6.98500142 20.23450072 -6.98500142 20.23450072 -4 19 C-0.27396602 13.21822313 -0.3203479 6.72730581 0 0 Z "
          fill="#19291F" transform="translate(99,40)"/>
    <path d="M0 0 C0.93619813 3.15506142 1.1057123 5.96586502 1.0625 9.25 C1.05347656 10.14203125 1.04445313 11.0340625 1.03515625 11.953125 C1.02355469 12.62859375 1.01195312 13.3040625 1 14 C-0.66611905 14.042721 -2.33382885 14.04063832 -4 14 C-4.33 13.67 -4.66 13.34 -5 13 C-4.71360991 7.2721981 -4.12221017 4.2551847 0 0 Z "
          fill="#F4F5F5" transform="translate(43,44)"/>
    <path d="M0 0 C1 3 1 3 0 6 C-0.23294845 12.08568662 -0.23294845 12.08568662 1 18 C0.01 17.01 -0.98 16.02 -2 15 C-4.84323792 16.15835619 -6.31388887 17.3217361 -8.5 19.5625 C-10.86027002 21.86376327 -11.81596775 22.64621864 -15 23 C-15 22.34 -15 21.68 -15 21 C-14.05125 20.7525 -13.1025 20.505 -12.125 20.25 C-8.49818439 18.79927376 -8.46295456 18.39571974 -7 15 C-6.5978125 14.20722656 -6.195625 13.41445312 -5.78125 12.59765625 C-5.3584375 11.76105469 -4.935625 10.92445312 -4.5 10.0625 C-4.0771875 9.22847656 -3.654375 8.39445312 -3.21875 7.53515625 C-2.02861707 5.05952718 -0.98976252 2.56146874 0 0 Z "
          fill="#131D1B" transform="translate(73,73)"/>
    <path d="M0 0 C-0.33 1.65 -0.66 3.3 -1 5 C0.32 5 1.64 5 3 5 C2.34 8.96 1.68 12.92 1 17 C0.34 16.67 -0.32 16.34 -1 16 C-1.5625 13.6875 -1.5625 13.6875 -2 11 C-2.185625 10.34 -2.37125 9.68 -2.5625 9 C-3.08140857 6.62784655 -3.06724317 4.42075428 -3 2 C-3.66 1.67 -4.32 1.34 -5 1 C-3 0 -3 0 0 0 Z "
          fill="#385D44" transform="translate(89,4)"/>
    <path d="M0 0 C-2.57784846 2.64752004 -4.91648098 4.94432065 -8 7 C-8.99 6.67 -9.98 6.34 -11 6 C-11.33 5.01 -11.66 4.02 -12 3 C-12.99 2.67 -13.98 2.34 -15 2 C-15 1.67 -15 1.34 -15 1 C-13.43784452 0.83013455 -11.8752548 0.66426036 -10.3125 0.5 C-9.44238281 0.4071875 -8.57226562 0.314375 -7.67578125 0.21875 C-5.10276661 0.00840136 -2.58015636 -0.03719144 0 0 Z "
          fill="#5E636A" transform="translate(49,63)"/>
    <path d="M0 0 C0.99 0.33 1.98 0.66 3 1 C3 2.98 3 4.96 3 7 C2.34 7 1.68 7 1 7 C0.67 10.3 0.34 13.6 0 17 C0.66 17.33 1.32 17.66 2 18 C0.35 17.67 -1.3 17.34 -3 17 C-2.57802769 11.38110553 -2.04047593 6.30523741 0 1 C0 0.67 0 0.34 0 0 Z "
          fill="#92646A" transform="translate(8,39)"/>
    <path d="M0 0 C0 0.99 0 1.98 0 3 C-1.7015625 3.8353125 -1.7015625 3.8353125 -3.4375 4.6875 C-6.50894368 6.40169896 -6.50894368 6.40169896 -7.9375 9.625 C-7.97586783 11.08297738 -8 12.54151786 -8 14 C-9.32 14 -10.64 14 -12 14 C-11.87754013 7.99946614 -10.1182441 5.46160752 -5.88671875 1.28515625 C-4 0 -4 0 0 0 Z "
          fill="#80C8AE" transform="translate(85,66)"/>
    <path d="M0 0 C1 3 1 3 1 7 C0.34 7 -0.32 7 -1 7 C-1.33 7.99 -1.66 8.98 -2 10 C-3.65 9.67 -5.3 9.34 -7 9 C-6.07506212 5.21616321 -5.60628829 3.43306306 -2.375 1.125 C-1.199375 0.568125 -1.199375 0.568125 0 0 Z "
          fill="#659680" transform="translate(55,78)"/>
    <path d="M0 0 C3.26189156 0.5623951 4.91134848 1.4140505 7 4 C8.1577506 7.47325181 8.06866652 10.36067448 8 14 C7.01 14 6.02 14 5 14 C4.67 11.03 4.34 8.06 4 5 C3.34 5 2.68 5 2 5 C2 4.34 2 3.68 2 3 C1.34 3 0.68 3 0 3 C0 2.01 0 1.02 0 0 Z "
          fill="#95424E" transform="translate(46,40)"/>
    <path d="M0 0 C2.46800047 1.15173355 4.04783565 2.04783565 6 4 C4.02 6.97 4.02 6.97 2 10 C1.34 9.67 0.68 9.34 0 9 C0 8.01 0 7.02 0 6 C-2.31 6.33 -4.62 6.66 -7 7 C-6.21625 6.401875 -5.4325 5.80375 -4.625 5.1875 C-1.85425677 3.08914751 -1.85425677 3.08914751 0 0 Z "
          fill="#3B5D43" transform="translate(78,3)"/>
    <path d="M0 0 C0.66 0 1.32 0 2 0 C2.02708567 1.60407328 2.04643483 3.2082785 2.0625 4.8125 C2.07410156 5.70582031 2.08570312 6.59914063 2.09765625 7.51953125 C2 10 2 10 1 13 C-0.32 13 -1.64 13 -3 13 C-2.17812739 8.61667943 -1.09845718 4.32059823 0 0 Z "
          fill="#78B89F" transform="translate(70,68)"/>
    <path d="M0 0 C0.66 0 1.32 0 2 0 C2 0.66 2 1.32 2 2 C2.66 2 3.32 2 4 2 C4.625 5.375 4.625 5.375 5 9 C4.34 9.66 3.68 10.32 3 11 C2.34 10.34 1.68 9.68 1 9 C1 8.01 1 7.02 1 6 C0.34 6 -0.32 6 -1 6 C-0.67 4.02 -0.34 2.04 0 0 Z "
          fill="#C47C89" transform="translate(46,43)"/>
    <path d="M0 0 C-0.33 2.97 -0.66 5.94 -1 9 C-3.475 8.01 -3.475 8.01 -6 7 C-6 3 -6 3 -4.6875 1.25 C-3 0 -3 0 0 0 Z "
          fill="#3F6955" transform="translate(29,43)"/>
    <path d="M0 0 C2.97 0 5.94 0 9 0 C9.33 0.99 9.66 1.98 10 3 C11.32 3.33 12.64 3.66 14 4 C10.37 4.66 6.74 5.32 3 6 C3 4.35 3 2.7 3 1 C2.01 0.67 1.02 0.34 0 0 Z "
          fill="#9ED3BD" transform="translate(24,24)"/>
    <path d="M0 0 C0.33 0.66 0.66 1.32 1 2 C-0.92766895 6.17661606 -2.9618808 7.92196926 -7 10 C-9.24994735 10.64095804 -11.5239568 11.20205144 -13.8125 11.6875 C-14.97394531 11.93886719 -16.13539062 12.19023438 -17.33203125 12.44921875 C-18.21246094 12.63097656 -19.09289063 12.81273437 -20 13 C-20.33 12.34 -20.66 11.68 -21 11 C-19.88625 10.773125 -18.7725 10.54625 -17.625 10.3125 C-10.79081992 8.59481838 -3.97228679 6.04198962 0 0 Z "
          fill="#6EB17F" transform="translate(83,22)"/>
    <path d="M0 0 C0 2.68770041 -0.27585018 4.88219601 -0.8125 7.5 C-0.96332031 8.2734375 -1.11414063 9.046875 -1.26953125 9.84375 C-2.0872127 12.2574407 -3.08269886 13.36110149 -5 15 C-6.04537095 12.29840881 -6.08156212 11.21584123 -5.0390625 8.45703125 C-4.57242187 7.58433594 -4.10578125 6.71164063 -3.625 5.8125 C-3.16351563 4.93207031 -2.70203125 4.05164062 -2.2265625 3.14453125 C-1 1 -1 1 0 0 Z "
          fill="#374F47" transform="translate(7,34)"/>
    <path d="M0 0 C0.33 0.66 0.66 1.32 1 2 C0.34249689 3.33787589 -0.3256926 4.67051448 -1 6 C-1.44811137 8.35564596 -1.44811137 8.35564596 -1.625 10.75 C-1.69976562 11.54921875 -1.77453125 12.3484375 -1.8515625 13.171875 C-1.90054687 13.77515625 -1.94953125 14.3784375 -2 15 C-2.99 14.67 -3.98 14.34 -5 14 C-4.58669586 8.00708997 -3.68096635 4.74963401 0 0 Z "
          fill="#E7EBED" transform="translate(8,40)"/>
    <path d="M0 0 C-0.9375 2 -0.9375 2 -3 4 C-6.02534949 4.36475845 -8.96663814 4.22893297 -12 4 C-8.7771058 -0.8343413 -5.44718932 -0.10277716 0 0 Z "
          fill="#92C79E" transform="translate(69,17)"/>
    <path d="M0 0 C-0.62759865 2.92879371 -1.58622659 5.36095629 -3 8 C-3.99 7.67 -4.98 7.34 -6 7 C-6.6875 4.9375 -6.6875 4.9375 -7 3 C-3.375 0 -3.375 0 0 0 Z "
          fill="#65957E" transform="translate(21,76)"/>
    <path d="M0 0 C-0.99 0.66 -1.98 1.32 -3 2 C-2.01 2.66 -1.02 3.32 0 4 C-0.33 4.66 -0.66 5.32 -1 6 C-1.33 5.67 -1.66 5.34 -2 5 C-2.66 6.32 -3.32 7.64 -4 9 C-5.65 9 -7.3 9 -9 9 C-7.68 8.67 -6.36 8.34 -5 8 C-5.66 5.36 -6.32 2.72 -7 0 C-2.25 -1.125 -2.25 -1.125 0 0 Z "
          fill="#3B5F4D" transform="translate(86,52)"/>
    <path d="M0 0 C0.66 0.66 1.32 1.32 2 2 C1.77870194 4.87687481 1.36521506 6.53951144 -0.4375 8.8125 C-2 10 -2 10 -4 10 C-4.1875 7.6875 -4.1875 7.6875 -4 5 C-2.5625 3.3125 -2.5625 3.3125 -1 2 C-0.67 1.34 -0.34 0.68 0 0 Z "
          fill="#69A38D" transform="translate(20,33)"/>
    <path d="M0 0 C0.33 0 0.66 0 1 0 C1.56557995 15.10307932 1.56557995 15.10307932 -2 21 C-2.66 21.33 -3.32 21.66 -4 22 C-3.34 19.03 -2.68 16.06 -2 13 C-1.34 13 -0.68 13 0 13 C0 8.71 0 4.42 0 0 Z "
          fill="#79BFA4" transform="translate(58,24)"/>
    <path d="M0 0 C0.36458333 4.49652778 0.36458333 4.49652778 -1.3125 6.8125 C-3 8 -3 8 -6 8 C-5.65442041 4.8033888 -5.42865983 3.38847297 -3 1.1875 C-1 0 -1 0 0 0 Z "
          fill="#52856E" transform="translate(84,72)"/>
    <path d="M0 0 C2.31 0.33 4.62 0.66 7 1 C7.103125 1.61875 7.20625 2.2375 7.3125 2.875 C7.87525373 5.36526484 7.87525373 5.36526484 11 7 C10.67 8.32 10.34 9.64 10 11 C9.67 10.34 9.34 9.68 9 9 C8.34 9 7.68 9 7 9 C4 4.61538462 4 4.61538462 4 2 C2.68 2 1.36 2 0 2 C0 1.34 0 0.68 0 0 Z "
          fill="#182423" transform="translate(36,81)"/>
    <path d="M0 0 C0.99 0.66 1.98 1.32 3 2 C-3.5 6 -3.5 6 -8 6 C-7 3 -7 3 -3.625 1.1875 C-2.42875 0.795625 -1.2325 0.40375 0 0 Z "
          fill="#578A74" transform="translate(29,29)"/>
    <path d="M0 0 C2.475 0.99 2.475 0.99 5 2 C5 2.66 5 3.32 5 4 C1.30458414 4.95024979 -1.30458414 4.95024979 -5 4 C-4.67 3.01 -4.34 2.02 -4 1 C-4 1.66 -4 2.32 -4 3 C-2.68 2.67 -1.36 2.34 0 2 C0 1.34 0 0.68 0 0 Z "
          fill="#384444" transform="translate(79,90)"/>
    <path d="M0 0 C-0.66 0 -1.32 0 -2 0 C-2 0.66 -2 1.32 -2 2 C-5.50776784 3.60355101 -8.14354879 4.22036864 -12 4 C-8.66437635 0.13769893 -4.98576775 -1.84658065 0 0 Z "
          fill="#A0D5C0" transform="translate(57,24)"/>
    <path d="M0 0 C-0.33 1.65 -0.66 3.3 -1 5 C0.32 5 1.64 5 3 5 C2.67 6.32 2.34 7.64 2 9 C1.67 8.01 1.34 7.02 1 6 C-0.32 6.33 -1.64 6.66 -3 7 C-3 5.35 -3 3.7 -3 2 C-3.66 1.67 -4.32 1.34 -5 1 C-3 0 -3 0 0 0 Z "
          fill="#18291D" transform="translate(89,4)"/>
    <path d="M0 0 C0.33 0 0.66 0 1 0 C1 3.63 1 7.26 1 11 C-0.65 11 -2.3 11 -4 11 C-4.33 10.34 -4.66 9.68 -5 9 C-4.0409375 8.443125 -4.0409375 8.443125 -3.0625 7.875 C-0.36141928 5.41947207 -0.31592995 3.55421195 0 0 Z "
          fill="#326551" transform="translate(84,71)"/>
    <path d="M0 0 C0.66 0 1.32 0 2 0 C1.125 5.75 1.125 5.75 0 8 C-0.99 8 -1.98 8 -3 8 C-1.125 1.125 -1.125 1.125 0 0 Z "
          fill="#9CD4BB" transform="translate(38,42)"/>
    <path d="M0 0 C0 0.66 0 1.32 0 2 C-4.1196377 3.29243536 -7.66831683 4.26252625 -12 4 C-7.96889361 0.80291562 -5.14313574 -0.13900367 0 0 Z "
          fill="#9CCEA4" transform="translate(57,12)"/>
    <path d="M0 0 C1.12758089 3.38274266 0.81750262 4.76778223 0.0625 8.1875 C-0.13214844 9.08855469 -0.32679687 9.98960938 -0.52734375 10.91796875 C-0.68332031 11.60503906 -0.83929688 12.29210937 -1 13 C-2.32 12.67 -3.64 12.34 -5 12 C-3.35 8.04 -1.7 4.08 0 0 Z "
          fill="#34534B" transform="translate(73,73)"/>
    <path d="M0 0 C0.66 0.33 1.32 0.66 2 1 C1.979375 1.78375 1.95875 2.5675 1.9375 3.375 C1.81315937 5.98114961 1.81315937 5.98114961 3 8 C1.68 8.99 0.36 9.98 -1 11 C-1.02688151 9.35425434 -1.04634123 7.70838587 -1.0625 6.0625 C-1.07410156 5.14597656 -1.08570312 4.22945312 -1.09765625 3.28515625 C-1 1 -1 1 0 0 Z "
          fill="#73AD98" transform="translate(2,48)"/>
    <path d="M0 0 C2 3 2 3 2 6 C3.32 6.33 4.64 6.66 6 7 C4.02 7 2.04 7 0 7 C0 6.34 0 5.68 0 5 C-0.66 5 -1.32 5 -2 5 C-1.125 1.125 -1.125 1.125 0 0 Z "
          fill="#5A916C" transform="translate(39,18)"/>
    <path d="M0 0 C0.99 0 1.98 0 3 0 C3 1.65 3 3.3 3 5 C2.01 5 1.02 5 0 5 C-0.66 4.01 -1.32 3.02 -2 2 C-1.34 1.34 -0.68 0.68 0 0 Z "
          fill="#4F806C" transform="translate(59,73)"/>
    <path d="M0 0 C0.66 0 1.32 0 2 0 C2.33 0.99 2.66 1.98 3 3 C3.66 2.67 4.32 2.34 5 2 C4.34 3.32 3.68 4.64 3 6 C2.34 6 1.68 6 1 6 C0.67 6.66 0.34 7.32 0 8 C0 5.36 0 2.72 0 0 Z "
          fill="#568375" transform="translate(72,67)"/>
    <path d="M0 0 C0.99 0.33 1.98 0.66 3 1 C2.67 3.31 2.34 5.62 2 8 C1.34 7.67 0.68 7.34 0 7 C0 4.69 0 2.38 0 0 Z "
          fill="#F5E7E9" transform="translate(48,46)"/>
    <path d="M0 0 C1.57432497 3.14864995 0.71895552 5.64487425 0 9 C-0.99 9.66 -1.98 10.32 -3 11 C-3.32613618 6.32538149 -2.70582788 3.83325617 0 0 Z "
          fill="#1F312B" transform="translate(11,23)"/>
    <path d="M0 0 C0 0.99 0 1.98 0 3 C-2 4.6875 -2 4.6875 -4 6 C-4.66 5.34 -5.32 4.68 -6 4 C-3.94766315 1.7522025 -2.99332739 0.9977758 0 0 Z "
          fill="#639180" transform="translate(60,63)"/>
    <path d="M0 0 C3.93673644 1.31224548 6.22719294 2.91910327 9 6 C5.32579134 5.69381595 4.21864487 5.24228216 1.6875 2.4375 C1.130625 1.633125 0.57375 0.82875 0 0 Z "
          fill="#6CA090" transform="translate(2,60)"/>
    <path d="M0 0 C1.98 0 3.96 0 6 0 C5.34 1.32 4.68 2.64 4 4 C3.01 3.67 2.02 3.34 1 3 C0.67 2.01 0.34 1.02 0 0 Z "
          fill="#7D677D" transform="translate(37,66)"/>
    <path d="M0 0 C0.33 0 0.66 0 1 0 C1 1.98 1 3.96 1 6 C-0.32 5.67 -1.64 5.34 -3 5 C-1.125 1.125 -1.125 1.125 0 0 Z "
          fill="#4B8468" transform="translate(26,45)"/>
    <path d="M0 0 C0.99 0.33 1.98 0.66 3 1 C2.525625 1.598125 2.05125 2.19625 1.5625 2.8125 C-0.16465744 5.00382924 -0.16465744 5.00382924 -1 8 C-1.66 8 -2.32 8 -3 8 C-1.125 2.25 -1.125 2.25 0 0 Z "
          fill="#8BC0AB" transform="translate(8,34)"/>
</svg>
